<?xml version="1.0" encoding="utf-8"?>
<!-- Generator: Adobe Illustrator 21.0.0, SVG Export Plug-In . SVG Version: 6.00 Build 0)  -->
<svg version="1.1" id="Layer_1" xmlns="http://www.w3.org/2000/svg" xmlns:xlink="http://www.w3.org/1999/xlink" x="0px" y="0px"
	 viewBox="0 0 375.4 201" style="enable-background:new 0 0 375.4 201;" xml:space="preserve">
<style type="text/css">
	.st0{fill:#FFFFFF;}
</style>
<g id="K0cnsw.tif">
	<g>
		<path d="M202.8,0c3,0.7,5.9,1.7,9,2c14.6,1.7,28.7,5.2,42.6,9.9C289,23.8,319,43.6,346.7,67c9.7,8.2,19.1,16.9,28.7,25.3
			c2.1,1.8,1.8,3.5,0,5.1c-8.5,7.7-17.1,15.3-25.6,22.9c-1,0.9-2.2,1.7-3.4,2.5c-2.2,1.4-2.3,2.9-1,5.1c2.9,5,5.6,10.1,8.3,15.2
			c0.5,1,0.7,2.2,0.9,3.3c0.7,4.2-1.2,7.6-5,8.7c-3.1,0.9-5.8-0.8-7.5-4.8c-1.9-4.1-3.7-8.3-5.8-12.3c-3-5.5-3.4-5.3-8.9-2.3
			c-15.2,8.3-30.6,16.6-46,24.6c-2.7,1.4-2.4,2.7-1.6,5c1.7,5.3,3.2,10.6,4.1,16c0.6,3.9-2.2,6.9-5.6,7.3c-3.7,0.4-6.4-1.9-7.3-6.1
			c-0.7-3.3-1.4-6.7-2.5-9.9c-1.6-4.8-3.5-5.7-8.3-4.3c-6.4,1.8-12.7,4.3-19.2,5.6c-13.5,2.6-27.1,4.7-40.7,6.8
			c-3,0.5-3.8,1.3-3.4,4.4c0.5,3.9,0.6,8,0.1,11.9c-0.5,3.8-3.7,4-7,3.9c-3.3-0.1-4.5-2.4-5-4.7c-0.8-3.3-0.9-6.7-1-10.1
			c0-3.5-1.3-4.8-4.9-4.9c-17-0.3-33.7-2.6-50-7.2c-5.4-1.6-10.9-3.1-16.3-4.9c-2.8-0.9-4.3-0.4-4.8,2.7c-0.6,3.2-1.6,6.4-2.2,9.6
			c-0.7,4-2.6,5.9-6.1,5.8c-3.8-0.1-6.8-2.6-6.8-6.3c0-3,0.7-6,1.3-9c0.3-1.5,0.7-3,1.3-4.3c1.4-3.3,0-5.2-3-6.6
			c-14.4-6.7-28.4-14.3-41.4-23.5c-2.4-1.7-4-1.3-5.3,0.9c-2.7,4.4-5.3,8.9-8,13.3c-0.9,1.5-1.9,3-3.1,4.2c-2.6,2.7-5.5,2.1-8.2,0.1
			c-2.4-1.9-3.6-4.5-2-7.3c3.2-5.9,6.5-11.7,10.1-17.3c1.7-2.7,2-4.2-0.9-6.5c-10.3-8.3-20.3-17-30.5-25.6c-0.9-0.7-1.9-1.3-3.4-2.4
			c8-8.2,14.9-16.1,22.6-23c10.1-9,20.6-17.5,31.4-25.6c13.7-10.2,28.2-19,43.9-25.9c9.2-4.1,18.3-8.7,27.9-11.4
			c12.8-3.7,26-5.8,39.1-8.7c1.8-0.4,3.5-1.4,5.3-2.2C181,0,191.9,0,202.8,0z M39.8,91.5c4.9,1.2,9.2,2.7,13.6,3.3
			c9.7,1.4,19.5,2.5,29.3,3.5c21.8,2.1,43.6,4.2,65.5,5.8c13.4,1,27,1.4,40.5,1.3c16.5-0.2,33-0.9,49.5-2.1
			c15.7-1.1,31.4-2.5,47.1-4.5c15.8-2,31.4-4.8,47.1-7.4c1.1-0.2,2.1-1.1,3.2-1.6c-0.5-0.9-0.8-2.1-1.6-2.8
			c-15.7-15.4-32.5-29.5-51.3-41c-13.8-8.5-28.4-15.4-43.8-20.1c-10.4-3.1-21.4-4.6-32.2-6.5c-19.9-3.5-39.5-0.7-58.8,4
			c-16.3,4-31.7,10.5-46.4,18.7C78.8,54.6,59.2,70.3,41.6,88.9C41,89.6,40.5,90.5,39.8,91.5z M324.6,109.5c-0.1-0.4-0.3-0.8-0.4-1.2
			c-1.8,0-3.5-0.2-5.3,0c-11,1.3-22,3.3-33,4c-15.8,1.1-31.8,1.2-47.6,2.1c-2.3,0.1-4.9,1.3-6.8,2.7c-5.2,3.9-9.9,8.6-15.4,12.2
			c-8.6,5.7-18.4,8.8-28.7,7.8c-14.2-1.4-26.6-7.5-36.7-17.7c-5-5-10.5-7-17.5-7c-11.7-0.1-23.4-0.9-35.1-1.6
			c-13.5-0.8-26.9-1.9-40.4-2.7c-1.6-0.1-3.3,0.2-5,0.2c-0.5,0.7-1,1.4-1.5,2.2c1.2,0.4,2.7,0.6,3.6,1.3
			c25.2,20.8,53,36.6,84.9,44.7c13.2,3.4,26.5,5.6,40,5.4c13.1-0.2,26.2-1.6,39.1-3.4c20.4-2.8,39.7-9.8,57.8-19.2
			c14.2-7.3,27.5-16.4,41.1-24.7C320.3,113.1,322.4,111.2,324.6,109.5z"/>
		<path class="st0" d="M39.8,91.5c0.7-1,1.2-1.9,1.9-2.6c17.5-18.6,37.2-34.3,59.6-46.7c14.7-8.2,30.1-14.7,46.4-18.7
			c19.3-4.7,38.9-7.5,58.8-4c10.8,1.9,21.7,3.3,32.2,6.5c15.4,4.7,30,11.6,43.8,20.1c18.8,11.5,35.6,25.6,51.3,41
			c0.7,0.7,1.1,1.9,1.6,2.8c-1.1,0.6-2.1,1.5-3.2,1.6c-15.7,2.5-31.3,5.4-47.1,7.4c-15.6,2-31.3,3.4-47.1,4.5
			c-16.5,1.1-33,1.9-49.5,2.1c-13.5,0.2-27-0.3-40.5-1.3c-21.9-1.6-43.7-3.7-65.5-5.8c-9.8-0.9-19.6-2.1-29.3-3.5
			C48.9,94.2,44.7,92.7,39.8,91.5z"/>
		<path class="st0" d="M324.6,109.5c-2.2,1.7-4.3,3.6-6.7,5.1c-13.6,8.4-27,17.4-41.1,24.7c-18.2,9.4-37.4,16.4-57.8,19.2
			c-13,1.8-26.1,3.1-39.1,3.4c-13.5,0.3-26.8-2-40-5.4c-31.9-8.1-59.7-23.9-84.9-44.7c-0.9-0.8-2.4-0.9-3.6-1.3
			c0.5-0.7,1-1.4,1.5-2.2c1.7-0.1,3.3-0.4,5-0.2c13.5,0.9,26.9,1.9,40.4,2.7c11.7,0.7,23.4,1.5,35.1,1.6c7,0.1,12.5,2,17.5,7
			c10.1,10.1,22.5,16.3,36.7,17.7c10.2,1,20.1-2.1,28.7-7.8c5.4-3.6,10.1-8.3,15.4-12.2c1.9-1.4,4.5-2.6,6.8-2.7
			c15.9-0.8,31.8-1,47.6-2.1c11.1-0.8,22-2.7,33-4c1.7-0.2,3.5,0,5.3,0C324.4,108.7,324.5,109.1,324.6,109.5z"/>
	</g>
</g>
</svg>
