<?xml version="1.0" encoding="utf-8"?>
<!-- Generator: Adobe Illustrator 21.0.0, SVG Export Plug-In . SVG Version: 6.00 Build 0)  -->
<svg version="1.1" xmlns="http://www.w3.org/2000/svg" xmlns:xlink="http://www.w3.org/1999/xlink" x="0px" y="0px"
	 viewBox="0 0 375.4 201" style="enable-background:new 0 0 375.4 201;" xml:space="preserve">
<style type="text/css">
	.st0{display:none;}
	.st1{display:inline;}
	.st2{display:none;fill:#FFFFFF;}
	.st3{fill:#FFFFFF;}
</style>
<g id="Layer_1" class="st0">
	<g id="K0cnsw.tif" class="st1">
		<g>
			<path class="st2" d="M21.2,97.5c-5.2-13,68.3-61.7,88.2-69.4c17.8-6.9,79-29.5,148.8-4.8c8.8,3.1,91.5,55.4,91.5,74.2
				c0,8.7-87.4,75.7-159,77.1C111.9,176.1,29.9,119.4,21.2,97.5z"/>
			<path d="M375.4,95.6c-8.5,7.7-17.1,17.1-25.6,24.7c-1,0.9-2.2,1.7-3.4,2.5c-2.2,1.4-2.3,2.9-1,5.1c2.9,5,5.6,10.1,8.3,15.2
				c0.5,1,0.7,2.2,0.9,3.3c0.7,4.2-1.2,7.6-5,8.7c-3.1,0.9-5.8-0.8-7.5-4.8c-1.9-4.1-3.7-8.3-5.8-12.3c-3-5.5-3.4-5.3-8.9-2.3
				c-15.2,8.3-30.6,16.6-46,24.6c-2.7,1.4-2.4,2.7-1.6,5c1.7,5.3,3.2,10.6,4.1,16c0.6,3.9-2.2,6.9-5.6,7.3c-3.7,0.4-6.4-1.9-7.3-6.1
				c-0.7-3.3-1.4-6.7-2.5-9.9c-1.6-4.8-3.5-5.7-8.3-4.3c-6.4,1.8-12.7,4.3-19.2,5.6c-13.5,2.6-27.1,4.7-40.7,6.8
				c-3,0.5-3.8,1.3-3.4,4.4c0.5,3.9,0.6,8,0.1,11.9c-0.5,3.8-3.7,4-7,3.9s-4.5-2.4-5-4.7c-0.8-3.3-0.9-6.7-1-10.1
				c0-3.5-1.3-4.8-4.9-4.9c-17-0.3-33.7-2.6-50-7.2c-5.4-1.6-10.9-3.1-16.3-4.9c-2.8-0.9-4.3-0.4-4.8,2.7c-0.6,3.2-1.6,6.4-2.2,9.6
				c-0.7,4-2.6,5.9-6.1,5.8c-3.8-0.1-6.8-2.6-6.8-6.3c0-3,0.7-6,1.3-9c0.3-1.5,0.7-3,1.3-4.3c1.4-3.3,0-5.2-3-6.6
				c-14.4-6.7-28.4-14.3-41.4-23.5c-2.4-1.7-4-1.3-5.3,0.9c-2.7,4.4-5.3,8.9-8,13.3c-0.9,1.5-1.9,3-3.1,4.2
				c-2.6,2.7-5.5,2.1-8.2,0.1c-2.4-1.9-3.6-4.5-2-7.3c3.2-5.9,6.5-11.7,10.1-17.3c1.7-2.7,2-4.2-0.9-6.5
				c-10.3-8.3-20.3-17-30.5-25.6c-0.9-0.7-1.9-1.3-3.4-2.4c8-8.2,14.9-16.1,22.6-23c10.1-9,20.6-17.5,31.4-25.6
				c13.7-10.2,28.2-19,43.9-25.9c6.5-2.9,15.4-7.3,27.9-11.4c17.1-5.6,32-8.2,42.9-9.5c7-0.5,14.7-0.8,22.9-0.7
				c7.3,0.1,14.1,0.5,20.5,1.2c14.6,1.7,28.7,5.2,42.6,9.9C289,23.8,319,43.6,346.7,67L375.4,95.6z M39.8,91.5
				c4.9,1.2,9.2,2.7,13.6,3.3c9.7,1.4,19.5,2.5,29.3,3.5c21.8,2.1,43.6,4.2,65.5,5.8c13.4,1,27,1.4,40.5,1.3
				c16.5-0.2,33-0.9,49.5-2.1c15.7-1.1,31.4-2.5,47.1-4.5c15.8-2,31.4-4.8,47.1-7.4c1.1-0.2,2.1-1.1,3.2-1.6c-0.2-0.5-0.4-1-0.7-1.5
				c0,0-0.4-0.7-0.9-1.3c-27.2-33.3-66.3-51.4-66.3-51.4c-14.1-6.5-32.9-15-59.4-17.5c-28.2-2.7-50.5,2.8-60.3,5.4
				c-9.4,2.5-17.5,5.3-24.7,8.2c0,0-10.8,4.4-21.7,10.5C73.9,57.5,43.3,88,39.8,91.5z M309.3,110.1c-63.7,9.1-188.9,10.1-255.7-1.7
				l19,17c13.5,11.4,39.9,30.3,77.9,38.3c44.3,9.3,79.5-1.4,96.8-7c13.8-4.4,43.3-14.2,70.4-40c3.6-3.5,6.5-6.5,8.4-8.6L309.3,110.1
				z"/>
		</g>
	</g>
</g>
<g id="Layer_2">
	<path class="st3" d="M21.2,97.5c-5.2-13,68.3-61.7,88.2-69.4c17.8-6.9,79-29.5,148.8-4.8c8.8,3.1,91.5,55.4,91.5,74.2
		c0,8.7-87.4,75.7-159,77.1C111.9,176.1,29.9,119.4,21.2,97.5z"/>
</g>
</svg>
